<svg width="1209" height="633" viewBox="0 0 1209 633" fill="none" xmlns="http://www.w3.org/2000/svg">
<path d="M379.091 331.882C391.603 331.882 401.569 334.92 408.987 340.998C416.495 347.075 421.902 355.656 425.209 366.738C428.516 377.731 430.169 390.601 430.169 405.348C430.169 419.559 428.158 432.251 424.136 443.423C420.204 454.505 414.215 463.219 406.172 469.565C398.128 475.911 387.984 479.083 375.739 479.083C360.277 479.083 347.854 473.632 338.469 462.728V530.028L315.947 532.843V334.831H335.118L336.995 354.538C342.179 347.299 348.346 341.713 355.496 337.78C362.735 333.848 370.6 331.882 379.091 331.882ZM373.728 349.98C365.953 349.98 359.071 352.349 353.082 357.086C347.184 361.733 342.313 366.917 338.469 372.637V442.618C342.134 448.07 346.737 452.405 352.278 455.622C357.909 458.75 364.076 460.315 370.779 460.315C382.487 460.315 391.291 455.846 397.189 446.908C403.088 437.971 406.038 424.073 406.038 405.214C406.038 392.881 404.876 382.647 402.552 374.514C400.228 366.291 396.698 360.169 391.961 356.147C387.224 352.036 381.146 349.98 373.728 349.98Z" fill="black"/>
<path d="M580.5 334.831L497.783 476.938C494.476 486.502 490.275 495.26 485.181 503.215C480.176 511.169 473.607 517.738 465.474 522.922C457.43 528.195 447.196 531.458 434.773 532.709L431.287 514.744C441.029 513.136 448.716 510.678 454.346 507.371C459.977 504.064 464.401 499.819 467.619 494.635C470.926 489.451 473.83 483.239 476.333 476H468.825L419.49 334.831H441.448L488.327 458.84L557 334.831L580.5 334.831Z" fill="black"/>
<path d="M867.705 310.911L874.677 332.093C868.688 333.97 862.298 335.132 855.505 335.579C848.713 336.026 841.339 336.249 833.385 336.249C841.518 340.003 847.64 344.874 851.752 350.862C855.863 356.761 857.919 363.732 857.919 371.776C857.919 381.071 855.818 389.338 851.618 396.578C847.417 403.817 841.339 409.493 833.385 413.604C825.52 417.715 816.001 419.771 804.829 419.771C800.093 419.771 796.115 419.547 792.898 419.101C789.77 418.654 786.731 417.983 783.781 417.09C781.636 418.52 779.849 420.486 778.419 422.988C777.078 425.491 776.408 428.083 776.408 430.764C776.408 434.16 777.749 436.976 780.43 439.21C783.111 441.445 788.071 442.562 795.311 442.562H820.783C830.257 442.562 838.748 444.26 846.255 447.656C853.852 451.052 859.796 455.611 864.086 461.331C868.465 467.051 870.655 473.575 870.655 480.904C870.655 494.757 864.756 505.393 852.958 512.811C841.25 520.229 824.671 523.938 803.221 523.938C788.206 523.938 776.363 522.374 767.694 519.246C759.024 516.207 752.813 511.515 749.059 505.169C745.395 498.913 743.562 491.003 743.562 481.44H763.94C763.94 486.892 765.013 491.406 767.158 494.981C769.303 498.556 773.19 501.192 778.821 502.89C784.452 504.678 792.54 505.572 803.087 505.572C813.454 505.572 821.9 504.678 828.425 502.89C835.038 501.192 839.909 498.6 843.038 495.115C846.255 491.718 847.864 487.473 847.864 482.379C847.864 475.675 844.825 470.626 838.748 467.229C832.67 463.833 825.073 462.135 815.957 462.135H790.753C778.598 462.135 769.615 459.454 763.806 454.091C758.086 448.729 755.226 442.562 755.226 435.59C755.226 431.032 756.522 426.608 759.114 422.318C761.795 418.028 765.683 414.23 770.777 410.923C762.644 406.633 756.656 401.315 752.813 394.969C748.97 388.623 747.048 380.937 747.048 371.91C747.048 362.347 749.416 353.901 754.153 346.572C758.89 339.154 765.504 333.345 773.995 329.144C782.485 324.943 792.272 322.843 803.355 322.843C815.242 322.754 824.894 322.262 832.312 321.368C839.731 320.385 846.076 319 851.35 317.212C856.712 315.425 862.164 313.324 867.705 310.911ZM803.355 339.333C792.004 339.333 783.603 342.416 778.151 348.583C772.788 354.661 770.107 362.436 770.107 371.91C770.107 381.473 772.878 389.338 778.419 395.505C783.96 401.672 792.451 404.756 803.891 404.756C813.901 404.756 821.498 401.851 826.682 396.042C831.955 390.232 834.592 382.144 834.592 371.776C834.592 361.14 831.955 353.097 826.682 347.645C821.498 342.103 813.722 339.333 803.355 339.333ZM936.241 325.926V425.938C936.241 435.233 938.163 441.936 942.006 446.047C945.849 450.159 951.837 452.214 959.97 452.214C967.746 452.214 975.075 450.025 981.957 445.645C988.928 441.176 994.335 435.903 998.179 429.826V325.926H1020.7V467.095H1001.53L999.653 448.058C994.112 455.208 987.275 460.705 979.141 464.548C971.008 468.302 962.786 470.179 954.474 470.179C940.799 470.179 930.566 466.559 923.773 459.32C917.07 451.991 913.718 441.757 913.718 428.619V325.926H936.241ZM1145.95 325.926V449.265H1185.76V467.095H1079.85V449.265H1123.42V343.757H1081.19V325.926H1145.95ZM1127.98 259.833C1132.99 259.833 1136.96 261.352 1139.91 264.391C1142.95 267.43 1144.47 271.139 1144.47 275.518C1144.47 280.077 1142.95 283.92 1139.91 287.048C1136.96 290.087 1132.99 291.606 1127.98 291.606C1123.24 291.606 1119.36 290.087 1116.32 287.048C1113.28 283.92 1111.76 280.077 1111.76 275.518C1111.76 271.139 1113.28 267.43 1116.32 264.391C1119.36 261.352 1123.24 259.833 1127.98 259.833Z" fill="black"/>
<path d="M512.89 145.71H560.912L633.789 273.365L706.907 145.71H752.274L657.92 298.703L763.616 478H715.594L632.823 327.902L549.087 478H503.962L608.209 300.875L512.89 145.71Z" fill="black"/>
<path d="M68.5 384L13.5 439L68.5 494" stroke="black" stroke-width="19"/>
<path d="M74 510.5L227.5 357" stroke="black" stroke-width="19"/>
<path d="M205.5 396L255 445.5L201 499.5" stroke="black" stroke-width="19"/>
</svg>
